<?xml version="1.0" encoding="utf-8"?>
<!-- Generator: Adobe Illustrator 23.0.3, SVG Export Plug-In . SVG Version: 6.00 Build 0)  -->
<svg version="1.1" id="Icons" xmlns="http://www.w3.org/2000/svg" xmlns:xlink="http://www.w3.org/1999/xlink" x="0px" y="0px"
	 viewBox="0 0 32 32" style="enable-background:new 0 0 32 32;" xml:space="preserve">
<g>
	<path d="M31,4H1C0.4,4,0,4.4,0,5v22c0,0.6,0.4,1,1,1h30c0.6,0,1-0.4,1-1V5C32,4.4,31.6,4,31,4z M17,6h3v3h-3V6z M7,6h3v3H7V6z
		 M9,18c-0.4,0-0.8-0.2-0.9-0.6C7.9,17,8,16.6,8.3,16.3l4-4c0.1-0.1,0.2-0.2,0.3-0.2c0.2-0.1,0.5-0.1,0.8,0c0.2,0.1,0.4,0.3,0.5,0.5
		C14,12.7,14,12.9,14,13v6c0,0.6-0.4,1-1,1s-1-0.4-1-1v-1H9z M5,26H2v-3h3V26z M5,9H2V6h3V9z M10,26H7v-3h3V26z M15,26h-3v-3h3V26z
		 M15,9h-3V6h3V9z M20,26h-3v-3h3V26z M18.3,16.7C18.1,16.5,18,16.3,18,16v3c0,0.6-0.4,1-1,1s-1-0.4-1-1v-6c0-0.6,0.4-1,1-1
		s1,0.4,1,1v3c0-0.3,0.1-0.5,0.3-0.7l3-3c0.4-0.4,1-0.4,1.4,0s0.4,1,0,1.4L20.4,16l2.3,2.3c0.4,0.4,0.4,1,0,1.4
		C22.5,19.9,22.3,20,22,20s-0.5-0.1-0.7-0.3L18.3,16.7z M25,26h-3v-3h3V26z M25,9h-3V6h3V9z M30,26h-3v-3h3V26z M30,9h-3V6h3V9z"/>
	<polygon points="12,15.4 11.4,16 12,16 	"/>
</g>
</svg>
