<?xml version="1.0" encoding="utf-8"?>
<!-- Generator: Adobe Illustrator 23.0.3, SVG Export Plug-In . SVG Version: 6.00 Build 0)  -->
<svg version="1.1" id="Icons" xmlns="http://www.w3.org/2000/svg" xmlns:xlink="http://www.w3.org/1999/xlink" x="0px" y="0px"
	 viewBox="0 0 32 32" style="enable-background:new 0 0 32 32;" xml:space="preserve">
<style type="text/css">
	.st0{fill:none;stroke:#000000;stroke-width:2;stroke-linecap:round;stroke-linejoin:round;stroke-miterlimit:10;}
</style>
<rect x="5" y="1" transform="matrix(6.123234e-17 -1 1 6.123234e-17 9.077183e-13 32)" class="st0" width="22" height="30"/>
<line class="st0" x1="31" y1="22" x2="1" y2="22"/>
<line class="st0" x1="1" y1="10" x2="31" y2="10"/>
<line class="st0" x1="6" y1="27" x2="6" y2="22"/>
<line class="st0" x1="11" y1="27" x2="11" y2="22"/>
<line class="st0" x1="16" y1="27" x2="16" y2="22"/>
<line class="st0" x1="21" y1="27" x2="21" y2="22"/>
<line class="st0" x1="26" y1="27" x2="26" y2="22"/>
<line class="st0" x1="6" y1="10" x2="6" y2="5"/>
<line class="st0" x1="11" y1="10" x2="11" y2="5"/>
<line class="st0" x1="16" y1="10" x2="16" y2="5"/>
<line class="st0" x1="21" y1="10" x2="21" y2="5"/>
<line class="st0" x1="26" y1="10" x2="26" y2="5"/>
<line class="st0" x1="13" y1="13" x2="13" y2="19"/>
<polyline class="st0" points="13,13 9,17 13,17 "/>
<line class="st0" x1="17" y1="13" x2="17" y2="19"/>
<polyline class="st0" points="22,13 19,16 22,19 "/>
</svg>
