<?xml version="1.0" encoding="utf-8"?>
<!-- Generator: Adobe Illustrator 23.0.3, SVG Export Plug-In . SVG Version: 6.00 Build 0)  -->
<svg version="1.1" id="Icons" xmlns="http://www.w3.org/2000/svg" xmlns:xlink="http://www.w3.org/1999/xlink" x="0px" y="0px"
	 viewBox="0 0 32 32" style="enable-background:new 0 0 32 32;" xml:space="preserve">
<path d="M30.7,5.2C30.4,5.1,30.1,5,29.9,5C20.7,6.3,11.3,6.3,2.1,5c-0.3,0-0.6,0-0.8,0.2C1.1,5.4,1,5.7,1,6v18
	c0,0.3,0.1,0.6,0.3,0.8S1.9,25,2.1,25c2.2-0.3,4.5-0.6,6.7-0.7c-1.2,0.9-2.1,2.1-2.5,3.4c-0.2,0.5,0.1,1.1,0.6,1.3
	c0.5,0.2,1.1-0.1,1.3-0.6c0.8-2.4,3.9-4.2,7.4-4.3c0.2,0,0.5,0,0.7,0c3.5,0.1,6.6,1.9,7.4,4.3c0.1,0.4,0.5,0.7,1,0.7
	c0.1,0,0.2,0,0.3-0.1c0.5-0.2,0.8-0.7,0.6-1.3c-0.4-1.3-1.3-2.5-2.5-3.4c2.2,0.2,4.5,0.4,6.7,0.7c0,0,0.1,0,0.1,0
	c0.2,0,0.5-0.1,0.7-0.2c0.2-0.2,0.3-0.5,0.3-0.8V6C31,5.7,30.9,5.4,30.7,5.2z M20.1,16.7l-5,3c-0.3,0.2-0.7,0.3-1,0.3
	c-0.3,0-0.7-0.1-1-0.3c-0.6-0.4-1-1-1-1.7V12c0-0.7,0.4-1.3,1-1.7c0.6-0.4,1.4-0.3,2,0l5,3c0.6,0.4,0.9,1,0.9,1.7
	S20.6,16.3,20.1,16.7z"/>
</svg>
