<?xml version="1.0" encoding="UTF-8" standalone="no"?> <svg id="Layer_1" data-name="Layer 1" xmlns="http://www.w3.org/2000/svg" viewBox="0 0 128 128"><defs><style>.cls-1{fill:#1d75b8;}.cls-2{fill:#2d3e50;}</style></defs><title>b</title><path class="cls-1" d="M49.33723,36.486l-2.4231.89527,7.67454,29.84248a2.86168,2.86168,0,0,0,5.543-1.42535l-6.3675-24.762a34.651,34.651,0,0,1,20.471,0l-6.36657,24.762a2.86168,2.86168,0,1,0,5.543,1.42535l7.67361-29.84248-2.4231-.89527A41.21063,41.21063,0,0,0,49.33723,36.486Z"/><path class="cls-2" d="M108.94015,37.78361a34.44408,34.44408,0,0,0-1.10663-4.70308A45.80834,45.80834,0,0,0,64.91485,1.81928h-.36251c-.18125,0-.36251,0-.55331.00955-.1812-.00955-.36245-.00955-.54371-.00955h-.36251A45.79893,45.79893,0,0,0,20.17412,33.08053a34.34225,34.34225,0,0,0-1.11618,4.70308,39.12253,39.12253,0,0,0,2.50892,22.34174c.09543.22894.20035.45788.30527.67727,5.35171,11.72421,15.893,27.41688,20.41478,38.273a3.68331,3.68331,0,0,0,3.40565,2.26088H82.31508a3.68337,3.68337,0,0,0,3.40565-2.26088c4.52176-10.85608,15.06308-26.54874,20.41478-38.273.10492-.21939.20029-.44833.29573-.67727A39.04188,39.04188,0,0,0,108.94015,37.78361Zm-9.9498,19.1269-.00955.02859c-.07633.16222-.14312.32437-.21945.49608-2.37535,5.1991-6.01949,11.55245-9.5491,17.696-3.53922,6.16261-7.1738,12.50641-9.7781,18.09666H48.56395c-2.59475-5.59025-6.22933-11.93406-9.76855-18.09666-3.52967-6.14351-7.17374-12.49686-9.55865-17.70551-.06678-.16216-.14312-.32431-.229-.51512a30.98412,30.98412,0,0,1-1.96516-17.71506,26.82589,26.82589,0,0,1,.8109-3.52967A37.6785,37.6785,0,0,1,63.09281,9.92794l.91577.00955.83949-.00955a37.68974,37.68974,0,0,1,35.29655,25.72829,25.05621,25.05621,0,0,1,.8109,3.54876A30.80105,30.80105,0,0,1,98.99035,56.91051Z"/><path class="cls-1" d="M82.72679,106.12676H45.27842a1.67121,1.67121,0,0,0-1.64218,1.98111l1.78582,9.4617a1.6712,1.6712,0,0,0,1.64218,1.36125h4.2654a14.70124,14.70124,0,0,0,25.34593,0H80.941a1.6712,1.6712,0,0,0,1.64218-1.36125l1.78582-9.4617A1.67121,1.67121,0,0,0,82.72679,106.12676Z"/></svg>