<?xml version="1.0" encoding="utf-8"?>
<!-- Generator: Adobe Illustrator 23.0.3, SVG Export Plug-In . SVG Version: 6.00 Build 0)  -->
<svg version="1.1" id="Icons" xmlns="http://www.w3.org/2000/svg" xmlns:xlink="http://www.w3.org/1999/xlink" x="0px" y="0px"
	 viewBox="0 0 32 32" style="enable-background:new 0 0 32 32;" xml:space="preserve">
<style type="text/css">
	.st0{fill:#FFFFFF;}
</style>
<path d="M19.1,11.1c-0.1-0.2-0.3-0.3-0.4-0.3c-0.9,0.2-1.7,0-2-0.5c-0.3-0.5-0.1-1.3,0.6-2c0.1-0.1,0.1-0.4,0-0.5
	c-0.9-0.9-2-1.6-3.3-1.9c-0.2-0.1-0.4,0.1-0.5,0.3C13.2,7,12.6,7.6,12,7.6S10.8,7,10.5,6.1c-0.1-0.2-0.3-0.3-0.5-0.3
	c-1.3,0.3-2.4,1-3.3,1.9c-0.1,0.1-0.1,0.4,0,0.5c0.6,0.7,0.9,1.5,0.6,2c-0.3,0.5-1.1,0.7-2,0.5c-0.2,0-0.4,0.1-0.4,0.3
	c-0.2,0.6-0.3,1.3-0.3,1.9s0.1,1.3,0.3,1.9c0.1,0.2,0.3,0.3,0.4,0.3c0.9-0.2,1.7,0,2,0.5c0.3,0.5,0.1,1.3-0.6,2
	c-0.1,0.1-0.1,0.4,0,0.5c0.9,0.9,2,1.6,3.3,1.9c0,0,0.1,0,0.1,0c0.2,0,0.3-0.1,0.4-0.3c0.3-0.9,0.8-1.5,1.5-1.5s1.2,0.6,1.5,1.5
	c0.1,0.2,0.3,0.3,0.5,0.3c1.3-0.3,2.4-1,3.3-1.9c0.1-0.1,0.1-0.4,0-0.5c-0.6-0.7-0.9-1.5-0.6-2c0.3-0.5,1.1-0.7,2-0.5
	c0.2,0,0.4-0.1,0.4-0.3c0.2-0.6,0.3-1.3,0.3-1.9S19.3,11.7,19.1,11.1z M12.9,13.4c-0.1,0.1-0.1,0.2-0.2,0.3C12.5,13.9,12.3,14,12,14
	c-0.1,0-0.3,0-0.4-0.1c-0.1-0.1-0.2-0.1-0.3-0.2c-0.1-0.1-0.2-0.2-0.2-0.3c0-0.1-0.1-0.3-0.1-0.4c0-0.1,0-0.3,0.1-0.4
	c0.1-0.1,0.1-0.2,0.2-0.3c0.4-0.4,1-0.4,1.4,0c0.1,0.1,0.2,0.2,0.2,0.3c0,0.1,0.1,0.3,0.1,0.4C13,13.1,13,13.3,12.9,13.4z"/>
<path d="M28.9,17.6L26,11.8C25.9,6.4,21.4,2,16,2c-2.4,0-4.6,0.8-6.4,2.3C10.4,4.1,11.2,4,12,4c5,0,9,4,9,9c0,5-4,9-9,9
	c-1.1,0-2.1-0.2-3-0.5V27c0,0.5,0.3,0.9,0.8,1l10,2c0.1,0,0.1,0,0.2,0c0.2,0,0.5-0.1,0.6-0.2c0.2-0.2,0.4-0.5,0.4-0.8v-4h2
	c1.7,0,3-1.3,3-3v-3h2c0.3,0,0.7-0.2,0.9-0.5S29,17.9,28.9,17.6z"/>
</svg>
