<svg id="Capa_1" enable-background="new 0 0 502.684 502.684" height="512" viewBox="0 0 502.684 502.684" width="512" xmlns="http://www.w3.org/2000/svg"><g><path d="m60 176.341h-60v75l30 15 30-15 15-30z" fill="#294865"/><path d="m0 251.341v75h60l15-30-15-45z" fill="#15314c"/><path d="m285 115.271-2.786 1.07c-16.417 0-56.754 0-72.214 0l-30 10-30-10h-90v135l119.999 15 105.001-15 15-60z" fill="#3f617f"/><path d="m466.277 158.967 36.406-127.422-217.683 83.726v136.07l104.999 15 102.342-15c0-31.978-8.688-63.957-26.064-92.374z" fill="#294865"/><path d="m60 251.341v135h90l30-10 30 10h72.214l2.786 1.071 15-61.071-15-75z" fill="#294865"/><path d="m210 191.341v-75h-60v75l30 15z" fill="#ffc24c"/><path d="m150 251.341 30 15 30-15v-60h-60z" fill="#fce867"/><path d="m150 311.341 30 10 30-10v-60h-60z" fill="#ffc24c"/><path d="m150 311.341h60v75h-60z" fill="#ff9935"/><path d="m492.341 251.341h-207.341v136.071l217.684 83.726-36.406-127.422c17.375-28.418 26.063-60.396 26.063-92.375z" fill="#15314c"/></g></svg>